<svg xmlns="http://www.w3.org/2000/svg" xmlns:xlink="http://www.w3.org/1999/xlink" viewBox="0 0 666.56 772"><defs><style>.cls-1{fill:#fffdd0;}.cls-2{fill:#f8d994;}.cls-3{fill:#835c37;}.cls-4{fill:#d6cfe8;}.cls-5{fill:#5a5550;}.cls-6{fill:#4b453e;}.cls-7{fill:#f6c08a;}.cls-8{fill:#1d1d1b;}.cls-9{fill:#75b959;}.cls-10{fill:#5e6385;}.cls-11,.cls-12,.cls-13{opacity:0.3;}.cls-11{fill:url(#Безымянный_градиент_12);}.cls-12{fill:url(#Безымянный_градиент_12-2);}.cls-13{fill:url(#Безымянный_градиент_12-3);}.cls-14{fill:#6c5845;}.cls-15{fill:#ba5237;}.cls-16{fill:#e55639;}.cls-17{fill:#a66f3d;}.cls-18{fill:#fff;}.cls-19{fill:#f08a90;}.cls-20{fill:#709d69;}.cls-21{fill:#f6bb31;}.cls-22{fill:#f29877;}.cls-23{fill:#fffbf5;}.cls-24{fill:#c9c6c5;}.cls-25{fill:#d5cecc;}.cls-26{fill:#f8b9ff;}.cls-27{fill:#f2bb64;}.cls-28{fill:#ffd274;}.cls-29{fill:#f79292;}</style><radialGradient id="Безымянный_градиент_12" cx="-29.85" cy="1273.8" r="124.22" gradientTransform="translate(375.78 84.63) scale(1.2 0.41)" gradientUnits="userSpaceOnUse"><stop offset="0"/><stop offset="0.16" stop-color="#3c3e38"/><stop offset="0.32" stop-color="#707468"/><stop offset="0.48" stop-color="#9ca191"/><stop offset="0.63" stop-color="#bdc4b0"/><stop offset="0.77" stop-color="#d5ddc7"/><stop offset="0.9" stop-color="#e4ecd4"/><stop offset="1" stop-color="#e9f1d9"/><stop offset="1" stop-color="#fff"/></radialGradient><radialGradient id="Безымянный_градиент_12-2" cx="112.86" cy="1312.1" r="37.36" gradientTransform="translate(382.47 123.54) scale(1.09 0.41)" xlink:href="#Безымянный_градиент_12"/><radialGradient id="Безымянный_градиент_12-3" cx="-210.42" cy="1310.7" r="37.36" gradientTransform="translate(939.51 -1228.03) scale(3.21 1.45)" xlink:href="#Безымянный_градиент_12"/></defs><g id="Layer_2" data-name="Layer 2"><g id="Слой_1" data-name="Слой 1"><ellipse class="cls-1" cx="335.06" cy="386" rx="331.5" ry="386"/><path class="cls-2" d="M391.48,48c-4-3.58-14.14,1.89-14.63,2.16a29.33,29.33,0,0,0-9.6,8.64c-6.88,9.46-8.95,22.53-7.67,31.9a37.86,37.86,0,0,1,.48,9.6c-.51,5.48-2,6.5-2.16,10.07-.34,6,3.22,12.41,8.15,15.84,5.12,3.56,10.52,3.06,17.52,2.4,7.22-.68,20.3-1.91,25.91-10.56a45.66,45.66,0,0,1,9.35-10.79c.53-.49.72-2.48,1.84-2.32,1.69.23.12,1.56,2.12,3.28,1.14,1,4.46-.86,5.28-2.28,1-1.8,1.05-2.29,1.08-6.12,0-2.08,0-5,1.68-7.68s3.1-2.36,3.6-4.32c.56-2.25-.72-5.43-3.12-6.23s-4.86,1-6,2.4c-1.69,2-1.08,3.59-2.64,4.55-1.87,1.16-3.22.13-3.48-1-.21-.95-.15-1.28,1.32-3.27,1.65-2.23,1.41-4.51,1.44-10.32,0-7.38.44-6.3.24-8.88-.17-2.2-1.13-14.61-7-16.55-2.52-.84-3.11,1.23-12.23,3.12-4.9,1-7.55,1-9.36-.48C392.26,50,392.68,49.06,391.48,48Z"/><path class="cls-2" d="M413.31,116.89c3.48,2.68,2.13,5.26,5.52,16.31,3.7,12,7.08,23,16.08,30.23,2.65,2.13,6,4,5.51,5.76s-4.81,1.92-9.59,2.4c-15.16,1.52-14.79,4.89-27.35,5.52-5,.25-11.31.5-18.71-2.16-4.49-1.62-11.59-4.17-13.2-9.84-.28-1-.69-3.1,3.84-13.43,3.39-7.75,4.66-8.94,7.44-15.12,5-11.2,3.23-12.58,6.47-16.07C395.21,114.17,407.2,112.18,413.31,116.89Z"/><path class="cls-3" d="M398.68,36.08c-3.52-4.31-4.16-4.78-4.8-5.14-4.68-2.69-10.31-.8-11.27-.47-1.7.57-6.05,2-8.16,6.32-2.27,4.6-.67,9.9,1.92,13.1,2.79,3.46,6.61,4.33,11.27,5.39,3.66.82,9.35,2.11,15.12-.24,4.68-1.91,5.82-4.76,9.11-4.44s5.47,3.43,6.48,4.91c5.79,8.5,3,19.95,1.2,27.38-1.65,6.78-3.65,14.6-10.31,22.24-4.85,5.54-5.51,9-11,11.93-5.86,3.11-11.05,2.77-12.61,1.87-2.67-1.56-3.35-6.24-5.62-6.78-1.74-.42-2.48,2-6,3a9.85,9.85,0,0,1-8.16-.94c-1.39-1-2.31-2.33-3.36-5.38-2.87-8.37-1.86-15.07-2.87-15.21-.31,0-.82.52-2.16,4.45-2.24,6.52-1.79,7.76-3.12,11.23-1.4,3.64-2.15,3-6.48,10.53-2.16,3.77-3.23,5.66-3.6,7-2.14,8,3.53,15.67,4.08,16.38,4.2,5.49,9.89,7.31,15.59,9.13a47.79,47.79,0,0,0,33.35-1.87c4.18-1.84,6.43-2.84,8.64-5.15,3-3.1,3-5.6,6-17.55,2.14-8.58,3.23-12.91,4.56-15.45,2.63-5,4.59-6,5.76-10.76.85-3.44.11-4.06.72-10.3.45-4.57,1-5.94,1.92-11.24a100.51,100.51,0,0,0,1.68-14.51c.2-8,.41-16.65-5.28-21.53-1-.86-5-4-8.88-3-3,.74-3.46,3.33-5.75,3.28C404.73,44.23,403.9,42.49,398.68,36.08Z"/><path class="cls-4" d="M392.32,571h16.11v14.07s-12.66.32-13.52,0S392.32,571,392.32,571Z"/><path class="cls-4" d="M454.39,574.82c.32,1.28,2.23,12.54,2.23,12.54l14.71-2.71-2.9-12.44Z"/><path class="cls-5" d="M393.65,582.58c-.95.71-.31,1.6-1.28,2.88-1.5,2-4.43,1.59-9.91,1.92-6,.35-9,.56-9.92,2.23-1,1.83.43,4.82,2.24,6.4,2.1,1.83,4.66,1.74,8.32,1.6,3.89-.14,8.22-.3,11.83-2.88a6.6,6.6,0,0,1,3.52-1.6c1.41-.08,1.77.54,4.16,1.28a11.49,11.49,0,0,0,6.08.64,4.83,4.83,0,0,0,3.2-1.6c1.49-2.12-.44-5.59-1.6-7.67s-2-2.46-2.24-2.56c-1.51-.58-2.49.53-4.48,1C399,585.17,395.74,581,393.65,582.58Z"/><path class="cls-6" d="M455.39,582.46c-.17.14-.31.33-.64,3.2a22.27,22.27,0,0,0-.32,4.47,6.31,6.31,0,0,0,2.24,4.48c1.16.84,3.16,1.47,4.48.64s.74-2.79,2.24-3.84,3.39-.33,4.47,0c2.58.81,2.79,2.07,5.12,3.2,1.27.61,3.1.74,6.72,1,3.84.24,5.76.36,8,0,3-.48,6.09-1,7-3.2a4,4,0,0,0-.64-4.15c-1.23-1.26-3-.64-7.67-.64-3.11,0-4.66,0-5.76-.32-5.81-1.7-7.23-8.84-10.24-8.32-1.05.18-.83,1-3.2,2.56a11.34,11.34,0,0,1-4.79,1.92C458.75,583.82,456.66,581.39,455.39,582.46Z"/><path class="cls-3" d="M391,73.51c1.08.49,1.69-.11,3.72-.24a8.75,8.75,0,0,1,5,.84c1.28.76,1.55,1.61,3.84,3,.73.45,1.22.67,1.56.48.61-.35.4-1.94.12-2.88-1.08-3.62-5.49-5.26-6.84-5.75a9.89,9.89,0,0,0-5.52-.72c-1,.18-3.34.61-3.72,2.15A3.07,3.07,0,0,0,391,73.51Z"/><path class="cls-3" d="M368.19,74.71c.63.23,1.1-.92,2.64-1.56a8.37,8.37,0,0,1,2.88-.36,12.1,12.1,0,0,1,3.48.24c2,.51,2.44,1.4,3.36,1.08A2.67,2.67,0,0,0,382,71.83a3.45,3.45,0,0,0-1.08-2.64c-.54-.48-1.13-.67-5-.83-3-.13-3.42,0-3.84.12-.78.3-1.56,1.08-3.12,2.63-.89.89-1.26,1.37-1.32,2S367.72,74.54,368.19,74.71Z"/><path class="cls-7" d="M380.68,110.78a4.55,4.55,0,0,0,3-2.46c.11-.32.32-1.06-.57-3.77s-1.34-4.1-2.48-5.09-3.54-2.07-4.85-1.2c-.42.28-.72.74-1.19,3.55-.56,3.29-.83,4.94-.44,5.83A5.91,5.91,0,0,0,380.68,110.78Z"/><path class="cls-3" d="M380.26,95c1.68.48,2.63-1.72,5.2-1.83,1.48-.06,2.54.62,4.61,2,4.14,2.72,4.06,4.53,6.49,5.24,3.26,1,5.76-1.62,6.51-.71s-1.62,5.13-5,7.64a15.63,15.63,0,0,1-10.47,2.84c-2.11-.2-4.43-.42-6-2.13-2.76-2.94-1.51-8.24-2.12-8.29-.4,0-.39,2.23-1.94,4.29a9.17,9.17,0,0,1-5,3.13,11.72,11.72,0,0,1-8.72-1.15,12.27,12.27,0,0,1-5.57-7.71c-1-3.66-.31-7.52.55-7.66.55-.09.74,1.42,2.45,2.53a6.63,6.63,0,0,0,3.92.92c1.51-.06,2.68-.6,5-1.68A13,13,0,0,1,373,91.13a6.1,6.1,0,0,1,4,.29C379.1,92.49,378.69,94.55,380.26,95Z"/><path class="cls-7" d="M384.61,71.8a39.76,39.76,0,0,1-1.37,5.43,21.11,21.11,0,0,1-3.37,6.24c-2.62,3.27-4.54,3.31-5,5.64a7,7,0,0,0,5.1,7.36c.25,0,3,.47,4.29-1.11,1.15-1.41.14-3.16-.24-7.84a57.12,57.12,0,0,1,0-5.9C384.12,75.94,384.78,71.83,384.61,71.8Z"/><path class="cls-2" d="M353,276.71s-18.2-9.84-43.56,1.56l38.33,79.38s4,10.07,2.61,12.65c-5.52,10.13-1.05,15.19,1.78,20.84,3.66,7.31,12.77,11.39,15.13,9.49,1.59-1.27-.51-4.73-1.73-14-.77-5.89-.38-8-.63-14.2a144.29,144.29,0,0,0-3.1-23.43C356,317.18,353,276.71,353,276.71Z"/><ellipse class="cls-8" cx="395.07" cy="81.18" rx="3.04" ry="3.52"/><ellipse class="cls-8" cx="374" cy="80.13" rx="2.52" ry="3.12"/><path class="cls-9" d="M372.77,158.93a21,21,0,0,0,5.76,6.72c3.21,2.27,6.48,2.81,10.07,3.36a44.9,44.9,0,0,0,12.48,0,59.26,59.26,0,0,0,15.35-4.32c6-2.51,11.52-9.6,11.52-9.6a14,14,0,0,0,9.59,4.32c6.2.39,9.44,0,13,.48,6.48.83,11,2.77,17.75,5.76,10,4.41,15,6.62,19.68,11,6.05,5.73,8.76,11.88,12,19.2,2.25,5.09,4.77,10.79,5.76,18.71,1.1,8.83-1.11,9.15-.48,24,.2,4.64-.19,9.32.48,13.91a31.81,31.81,0,0,1,0,8.16,40.17,40.17,0,0,1-9.6,1.92,155.61,155.61,0,0,0-17.75,1.92s-17.64.66-20.15,4.32c-1.17,1.7-.79,3.55-.48,6.23,1.05,9.34,1.08,11.39,1,21.6-.29,22.72,1,41.26,1,41.26a27.54,27.54,0,0,1-8.16.48c-14.58-1.79-14.53,1.71-36,1.92a352.08,352.08,0,0,0-36,1.92s-18.13,1.63-24-1.44c-4.58-2.4-14.4-30.23-14.4-30.23l-5.75-20.15-1.44-10.56-23,1.44a53.43,53.43,0,0,1-8.15-16.79c-1.65-6-2.2-10.34-3.36-21.11-2.72-25.24-2.59-28.62-1.92-32.63,1-5.88,2.79-10,6.24-18.23,4.75-11.39,8.87-17.15,10.79-19.68a71.33,71.33,0,0,1,7-7.67s11.26-1.93,24-3.36C360.87,160.07,372.77,158.93,372.77,158.93Z"/><path class="cls-10" d="M364.93,354.37v57.9l6.4,62.38s9.92,51.82,9.92,52.78,9.27,48.3,9.27,48.3H410V420.91s8.31,36.46,8.63,39,15,48.94,15,48.94l13.43,46.06,6.08,20.8h16.31V553.34l-5.76-45.75-1.91-59.49,2.23-41-.64-31.66-2.55-18.56-4.64-8Z"/><ellipse class="cls-11" cx="339.91" cy="605.15" rx="208.1" ry="42.27"/><ellipse class="cls-12" cx="505.7" cy="659.71" rx="56.86" ry="12.71"/><ellipse class="cls-13" cx="263.2" cy="668" rx="167.36" ry="45"/><path class="cls-2" d="M456.69,268.92s18.06-15.17,49-8.27l-24.56,97.42s-2.16,12.15,0,14.71c8.49,10,4.67,16.71,2.81,23.67-2.41,9-11.65,15.65-14.72,14.08-2.06-1.06-.51-5.4-1.28-16-.49-6.75-1.41-9-2.56-16-2-12.18-1.78-21-1.92-26.87C462.63,314.78,456.69,268.92,456.69,268.92Z"/><polygon class="cls-14" points="459.14 353.49 363.33 356.93 355.5 340.78 459.56 336.93 459.14 353.49"/><path class="cls-2" d="M220.66,527c.72,3.83,7.44,37.66,8.16,40.3s5.52,23,5.52,23h11.75l3.36-31.67V527.73Z"/><polygon class="cls-2" points="265.28 531.08 268.64 558.67 275.6 586.02 275.6 590.34 285.68 588.66 285.68 572.59 289.27 544.76 292.63 518.61 265.28 531.08"/><path class="cls-15" d="M274.33,585.54c1.67-.46,2.37,1.49,5,1.44,3.66-.06,4.77-3.74,7.92-3.6,2,.09,2.2,1.58,5,3.36,4,2.5,8.27,2.58,12.23,2.64,6.12.1,9.23-1.41,10.08,0,.75,1.24-.9,3.7-2.16,5-3.74,4-11.35,5.78-17.51,3.6-2.52-.89-4.34-2.29-7.44-1.92-1.8.21-2.43.83-4.56,1.68s-8.15,3.25-10.8,1.2C268.76,596.33,270.88,586.5,274.33,585.54Z"/><path class="cls-15" d="M246.93,588.71c-1.66-.46-2.36,1.48-5,1.44-3.66-.06-4.78-3.74-7.92-3.6-2,.09-2.21,1.58-5,3.36-4,2.5-8.27,2.57-12.23,2.64-6.13.1-9.23-1.41-10.08,0-.75,1.24.89,3.7,2.16,5,3.74,4,11.35,5.78,17.51,3.6,2.51-.89,4.34-2.29,7.44-1.92,1.79.21,2.43.83,4.56,1.68s8.14,3.25,10.79,1.2C252.51,599.5,250.39,589.67,246.93,588.71Z"/><path class="cls-16" d="M216,288.06a26,26,0,0,0-3.84,2.56,29.89,29.89,0,0,0-9.28,14c-6.57,19.23-19,36.08-25.91,55.18-17.7,48.78-26.55,73.17-39.34,96.44,0,0-15.42,28-19.2,61.9-.29,2.68-1.22,11.5,1.44,12.47,1.75.64,3.89-2.51,7.2-5.27,6.83-5.7,14.77-6.53,21.11-7.2,10.76-1.13,19.09,1.75,29.27,5.28,5.8,2,5.87,2.6,15.84,6.23,8.34,3.05,12.52,4.58,17.75,5.76,7.32,1.66,12.82,1.77,23.51,1.92,8.67.12,16,.23,25.91-1,11.83-1.41,20.37-2.44,30.23-7.2s8.72-7.29,16.79-10.07c6.29-2.16,13.39-2,27.35-1.44,13.54.5,15.61,1.53,23,.48a54.05,54.05,0,0,0,16.79-4.8c4.2-2,9.26-6.33,19.2-14.87,7.83-6.73,8.48-7.68,8.63-9.12.68-6.4-9.7-10.32-19.67-19.67-7.49-7-10-12.66-18.23-27.83-14.34-26.36-10-15.1-34.07-58.06-15-26.71-22.49-40.07-28.79-53.26-5.3-11.1-13.93-21-16.31-33.1-.57-2.89-9.76-18.4-9.76-18.4l-2.24-1.52S218.13,286.85,216,288.06Z"/><path class="cls-17" d="M278.68,101.45c3.59,1.15,2.93,8.08,6.55,23.36,1.87,7.87,5.61,11.06,6.72,18.23,1.31,8.41-1.57,12.73-4.48,17.43-3.78,6.12-11.34,7.48-16,8.32-4.37.78-11.46,2.06-15.67-1.92-2.61-2.46-3.34-6.2-3-13.44.27-6.57,1.58-30.08,18.87-47.82C274.86,102.31,277,100.91,278.68,101.45Z"/><path class="cls-2" d="M255.52,158c4.14,7.07-1.33,9.37,2.76,18.85,2.85,6.58,7.35,9.81,7.56,17.38.05,2.21.07,3.72-1,4.89-2.78,3-8.48-.94-22.15-2.93-8.14-1.19-12.57-.73-16.86-4.41-1.11-.95-3.31-2.88-3.53-5.63s1.59-3.73,3-7.59c.49-1.31.41-1.53,1.26-9,1.18-10.46,1.3-9.74,1.26-11.26-.14-5.08-1.32-7.24.25-9.06.79-.92,2.19-1.65,5.29-1.71C238.68,147.4,250.35,149.22,255.52,158Z"/><ellipse class="cls-2" cx="249.42" cy="122.52" rx="31.67" ry="39.34" transform="translate(-25.07 79.23) rotate(-17.2)"/><path class="cls-17" d="M197.91,114.17c.6-5.17-2.78-7.16-3.36-13.19-.5-5.18,1.45-9.28,2.64-11.76,3.78-7.94,10.48-11.64,16.31-14.87a52.73,52.73,0,0,1,19.67-6.24c6.74-.74,11.27-1.24,16.32,1,7.62,3.32,8.67,9.42,14.15,9.35,3.73,0,3.87-2.88,9.84-5a24.16,24.16,0,0,1,15.83-.24c2.1.72,8.08,2.79,11.52,9.11a19.34,19.34,0,0,1,1.44,14.4c-.41,1.36-2.69,9-8.64,11-10.31,3.48-24.78-12.37-30.71-8.63-.32.2-1.43,1-2.64,1.92-3.36,2.63-4.24,4-5.27,4.79-5.32,3.83-17.55-8.55-22.56-5-1.12.78-.72,1.56-2.63,6.47-2,5.26-3.16,7.85-4.56,9.36-4.62,5-11.47,2-12.8,5.2-.68,1.61.64,3.48,9.92,14.87,5.31,6.52,5.9,7.16,6.72,9,.59,1.31,4.44,9.78.64,17.11-5.26,10.11-20.48,9.17-21.12,9.12-13.18-1-20.32-12.37-21.59-14.4-1.58-2.52-7.72-12.29-4.32-20.79,1.55-3.85,3.6-3.83,10.56-13.75C197.34,117.08,197.76,115.48,197.91,114.17Z"/><path class="cls-2" d="M307.2,247.08s9.78,5.39,7.68,79.33h0l1.92,6.07A39.57,39.57,0,0,1,324.16,345c2.25,6.26,3.34,14.47,1.28,15.35-1.18.5-2.38-1.77-8.32-6.39-5.43-4.23-5.76-3.37-7.36-5.44-2.77-3.61-3.23-8.12-3.84-14.08-.33-3.24-.05-3.19-.32-5.12-.94-6.84-5-11.32-7-14.07-3.57-4.71-5.79-13.48-10.24-31-2.4-9.46-2.21-11.09-4.48-16.95-2.87-7.41-4.84-9.08-4.16-11.84C281.39,248.51,297.81,241.89,307.2,247.08Z"/><ellipse class="cls-2" cx="217.9" cy="123.69" rx="6.72" ry="5.44"/><ellipse class="cls-18" cx="218.06" cy="131.4" rx="4.32" ry="5.24"/><path class="cls-17" d="M277.08,116.89c0,1.46-1.38-.4-4.16-.4s-5.92,1.86-5.92.4,2.26-2.64,5-2.64S277.08,115.43,277.08,116.89Z"/><path class="cls-17" d="M253.25,118c-1.25,2.09-4.39.53-9,.53s-8,2.07-8,.75,3.71-4.08,8.28-4.08S253.92,116.87,253.25,118Z"/><path class="cls-2" d="M177.55,242.59s-9.78,5.4-7.68,79.33h0L168,328a39.38,39.38,0,0,0-7.36,12.47c-2.25,6.26-3.34,14.47-1.28,15.36,1.17.49,2.37-1.78,8.32-6.4,5.43-4.22,5.76-3.37,7.36-5.44,2.77-3.61,3.23-8.12,3.84-14.07.32-3.25,0-3.19.32-5.12.94-6.85,4.95-11.33,7-14.08,3.57-4.71,5.79-13.48,10.24-31,2.4-9.46,2.2-11.09,4.48-16.95,2.87-7.4,4.84-9.07,4.15-11.83C203.36,244,186.94,237.41,177.55,242.59Z"/><circle class="cls-8" cx="248.71" cy="127.15" r="2.7"/><circle class="cls-8" cx="272.44" cy="127" r="2.56"/><path class="cls-7" d="M261.7,121.26c.92-.32,3.06,3.53,4.19,6.17,1.35,3.15,2.5,5.83,1.21,7.83-.89,1.39-2.91,2.4-4.42,1.8s-1.83-2.22-2-2.81c-.54-2,.2-3.18.67-5.61C262.23,124.11,260.94,121.52,261.7,121.26Z"/><path class="cls-19" d="M269.43,141.48c-.38-.33-1.86.94-2.64,1.44-5.41,3.48-17.75-3.24-17.75-3.24a9.55,9.55,0,0,0,.72,2,14,14,0,0,0,2.28,3.84,9.81,9.81,0,0,0,5.4,2.88c2.76.46,4.82-.48,6.95-1.44,3.2-1.45,4.24-3.14,4.56-3.72C269,143.11,269.77,141.77,269.43,141.48Z"/><path class="cls-16" d="M288.25,254.39a19.42,19.42,0,0,0,6.72,1c3.36-.18,4.62-1.25,10.23-3.52,7.83-3.16,10.14-3,10.88-5.11.65-1.87-.58-3.59-2.56-7-2.54-4.43-4.37-9.23-6.72-13.76-6.77-13-3.3-14.35-8-20.15-3.26-4-4.25-2.53-18.87-11.83-8.2-5.22-11.1-7.73-12.47-6.72-1.93,1.42,1.36,8.12,4.15,15.67C281.87,230.6,278.56,250.87,288.25,254.39Z"/><path class="cls-16" d="M214.68,187.33a27.64,27.64,0,0,0-8,3.63c-3.75,2.18-6.25,4.39-12.47,10.53-7.12,7-10.67,10.53-11.52,11.86-3.06,4.82-1.58,5.12-6.4,17.79-3.23,8.5-5,11.16-3.52,13.83.79,1.45,1.73,1.45,9,4.94,7.42,3.58,7,3.87,9,4.28,5.92,1.28,8.16-1.79,13.11-1,5.69.92,9.18,6,10.88,8.24a20.51,20.51,0,0,1,4.48,9.88c.13,1,1.15,8.91-2.88,14.82-.63.92-1.53,2-1.28,3.29.2,1.05,1.2,2.34,5.43,3.63a32.38,32.38,0,0,0,11.84,1.31,220,220,0,0,0,23-3.62c18.46-4.24,21.11-5.76,21.75-8.23,1-3.74-3.52-6.27-2.24-11.2.32-1.22.94-2.39,6.4-7.25,7.73-6.88,9.17-6.92,10.88-9.88,2-3.51,2-6.89,1.92-12.18a50.28,50.28,0,0,0-3.52-17.13c-2.74-7.39-4.12-7.39-8.32-16.14-6.32-13.17-6.7-20.46-10.24-20.75-2.88-.23-3.61,4.52-9.59,8.24a24.15,24.15,0,0,1-13.12,3.29C233.11,199.58,227.06,184.6,214.68,187.33Z"/><path class="cls-18" d="M224.91,186.9a41.4,41.4,0,0,1,6.4,4.16c7.17,5.2,16.36,4.88,17.91,4.8,8.49-.44,13.31-5.07,15.36-2.88,1.08,1.15.66,3.41,0,4.8-1.59,3.31-5.87,4.39-13.76,5.43C237,205,230,206,224.59,203.85c-5.85-2.26-14.15-7.73-13.43-13.11.37-2.82,3.2-5.5,6.08-6.08C219.58,184.19,221.58,185.18,224.91,186.9Z"/><path class="cls-18" d="M262.66,183.7c-.81.76,1.61,3.12,1.28,6.72-.2,2.13-1.2,2.89-.64,3.84.46.79,1.62,1,5.12,1,5.36-.1,8-.15,8.63-1.28,1-1.84-1.35-5.34-3.84-7-1.87-1.28-2.29-.49-7.67-2.56C263.94,183.73,263.08,183.31,262.66,183.7Z"/><polygon class="cls-2" points="345.66 447.15 325.37 447.15 325.37 412.51 340.59 412.51 345.66 447.15"/><path class="cls-4" d="M327.55,591.15h6.83v6s-5.36.13-5.73,0S327.55,591.15,327.55,591.15Z"/><path class="cls-4" d="M353.87,592.76c.14.54.95,5.32.95,5.32l6.24-1.15-1.23-5.27Z"/><path class="cls-5" d="M328.12,596.05c-.41.3-.14.68-.54,1.22-.64.85-1.88.68-4.21.82-2.54.15-3.82.23-4.2.95s.18,2,.95,2.71,2,.73,3.52.68a8.83,8.83,0,0,0,5-1.22,2.73,2.73,0,0,1,1.49-.68c.6,0,.75.23,1.77.54a4.85,4.85,0,0,0,2.57.27,2,2,0,0,0,1.36-.68c.63-.9-.19-2.37-.68-3.25s-.83-1-.95-1.09c-.64-.24-1.05.23-1.9.41C330.36,597.15,329,595.4,328.12,596.05Z"/><path class="cls-6" d="M354.3,596c-.07.06-.13.14-.27,1.36a8.82,8.82,0,0,0-.14,1.9,2.71,2.71,0,0,0,.95,1.9,1.88,1.88,0,0,0,1.9.27c.62-.39.31-1.19.95-1.63a2.29,2.29,0,0,1,1.9,0c1.09.34,1.18.88,2.17,1.36a8.7,8.7,0,0,0,2.85.4,15,15,0,0,0,3.39,0c1.28-.2,2.58-.41,3-1.35a1.72,1.72,0,0,0-.27-1.77c-.52-.53-1.29-.27-3.26-.27A10.7,10.7,0,0,1,365,598c-2.46-.72-3.06-3.75-4.34-3.53-.45.08-.35.45-1.35,1.08a4.69,4.69,0,0,1-2,.82C355.72,596.58,354.84,595.55,354.3,596Z"/><path class="cls-20" d="M317.49,502.62l-1.55,5.71v18l2.7,25.49s4.18,21.17,4.18,21.56,3.9,20.39,3.9,20.39H335V529.89s3.5,14.9,3.64,16,6.33,20,6.33,20l5.67,18.82,2.56,8.5H360V584l-2.42-18.69L356.79,541l.94-16.73-.27-12.94-1.08-7.58-.73-4Z"/><path class="cls-2" d="M357.41,477.16c-1.45,1.6-1.46,3.23-.88,15.26.73,15,.85,14.66.66,15.69a31.16,31.16,0,0,0-.22,11.34c.15,1.33.35,2.51.87,2.61.87.17,2.22-2.77,3.93-7.41,3.24-8.84,4.15-14,6.32-22.45,2.93-11.41,4.29-13.66,2.61-15.69C368.1,473.37,360.62,473.61,357.41,477.16Z"/><path class="cls-2" d="M316.41,478.72c1.45,1.6,1.46,3.23.88,15.26-.73,15-.85,14.65-.66,15.69a31.11,31.11,0,0,1,.22,11.33c-.15,1.34-.35,2.52-.87,2.62-.87.17-2.22-2.77-3.93-7.41-3.24-8.84-4.15-14-6.32-22.45-2.93-11.42-4.29-13.66-2.61-15.7C305.72,474.92,313.2,475.17,316.41,478.72Z"/><path class="cls-21" d="M325.33,440.63a7.38,7.38,0,0,0,2,2.38,7.58,7.58,0,0,0,3.57,1.19,15.71,15.71,0,0,0,4.42,0,21,21,0,0,0,5.44-1.53,12.52,12.52,0,0,0,4.08-3.4,5,5,0,0,0,3.4,1.53c2.2.14,3.35,0,4.59.17a20.93,20.93,0,0,1,6.3,2c3.54,1.56,5.32,2.35,7,3.91,2.14,2,3.1,4.21,4.25,6.8a22.2,22.2,0,0,1,2,6.63c.39,3.14-.39,3.25-.17,8.51a47.68,47.68,0,0,0,.17,4.93,11.41,11.41,0,0,1,0,2.89,14.07,14.07,0,0,1-3.4.68,55,55,0,0,0-6.29.68s-6.26.23-7.14,1.53c-.42.6-.28,1.26-.17,2.21a46.21,46.21,0,0,1,.34,7.65c-.11,8.05.34,14.63.34,14.63a9.8,9.8,0,0,1-2.9.17c-5.16-.64-5.14.6-12.75.68a122,122,0,0,0-12.75.68s-6.43.57-8.5-.51c-1.63-.85-5.11-10.72-5.11-10.72l-2-7.14-.51-3.74-8.16.51A18.85,18.85,0,0,1,300.5,478a43,43,0,0,1-1.19-7.48c-1-8.95-.92-10.15-.68-11.57a28.06,28.06,0,0,1,2.21-6.46,30.63,30.63,0,0,1,3.83-7,24.6,24.6,0,0,1,2.46-2.72s4-.68,8.5-1.19C321.11,441,325.33,440.63,325.33,440.63Z"/><ellipse class="cls-2" cx="326.65" cy="392.11" rx="37.16" ry="29.91" transform="translate(-144.52 588.21) rotate(-72.8)"/><path class="cls-17" d="M300.44,386.8c0,1.37,1.3-.38,3.93-.38s5.59,1.75,5.59.38-2.13-2.5-4.76-2.5S300.44,385.42,300.44,386.8Z"/><path class="cls-17" d="M323,387.85c1.17,2,4.14.51,8.46.51s7.55,1.95,7.55.7-3.5-3.85-7.82-3.85S322.31,386.78,323,387.85Z"/><circle class="cls-8" cx="325.51" cy="396.56" r="2.63"/><ellipse class="cls-8" cx="304" cy="396.09" rx="2.55" ry="2.46"/><path class="cls-7" d="M313.58,390.76c-.91-.14-2.23,3.81-2.83,6.46-.71,3.15-1.31,5.84.23,7.48,1.06,1.13,3.12,1.72,4.42.9a3.81,3.81,0,0,0,1.36-2.94c.15-1.94-.74-2.93-1.59-5.1C313.58,393.5,314.33,390.87,313.58,390.76Z"/><path class="cls-22" d="M307.66,410c.37-.31,1.76.89,2.5,1.36,5.1,3.29,16.76-3.06,16.76-3.06a8.85,8.85,0,0,1-.68,1.93,13,13,0,0,1-2.15,3.62,9.2,9.2,0,0,1-5.1,2.72c-2.61.44-4.56-.45-6.57-1.36-3-1.37-4-3-4.3-3.51C308,411.56,307.34,410.29,307.66,410Z"/><path class="cls-17" d="M310.62,376.9s-8.77,3.47-13.79,1.36c-2.74-1.16-4-4.3-5.39-7.71-1.21-3-3.3-8.14-1.2-12.93,2-4.58,6.55-5.88,8.19-6.35.47-.14,7.68-2.1,11,1.81.53.63.93,1.37,1.6,1.36,1.42,0,1.83-3.33,3.6-6.12a12.11,12.11,0,0,1,10-5.67,11.13,11.13,0,0,1,9.19,5.22c1.3,2.3,1.53,5.12,3.39,5.67a3.45,3.45,0,0,0,2-.23,29.5,29.5,0,0,0,5.4-1.81c3.25-1.54,8.73-.36,12.39,2.49,4.6,3.6,6.4,9.94,7,12a18.63,18.63,0,0,0,1,3.18c1.87,4.15,4.4,4.14,6.59,7,3.47,4.56,3.61,13.11.8,17a8.49,8.49,0,0,0-1.6,2.5c-1,2.77.57,4.6.6,7.48.06,4.92-4.31,8.59-5.19,9.3s-5.22,4.16-9,2.27c-2.52-1.26-3.56-4.21-4.4-6.58a16.07,16.07,0,0,1-1-8.39c.38-2.06,1.07-2.94.6-4.08-.6-1.47-2.19-1.14-4.4-2.27a13.49,13.49,0,0,1-6.39-8.16c-.68-2.63,0-4.14-1.4-5.9-.12-.16-1.52-1.92-3-1.59a2.88,2.88,0,0,0-1.59,1.36c-2.06,3.11-7,4.22-8.4,4.54a16.85,16.85,0,0,1-10.39-1.36,15.36,15.36,0,0,1-4.59-3.4A13.27,13.27,0,0,1,310.62,376.9Z"/><ellipse class="cls-2" cx="354.3" cy="396.26" rx="6.34" ry="5.14" transform="translate(-75.61 83.65) rotate(-12.18)"/><polygon class="cls-14" points="356.76 506.41 316.66 506.26 316.73 500.98 355.93 500.69 356.76 506.41"/><circle class="cls-23" cx="303.21" cy="395.24" r="0.44"/><circle class="cls-23" cx="324.33" cy="395.62" r="0.43"/><circle class="cls-18" cx="247.83" cy="125.83" r="0.41"/><circle class="cls-18" cx="271.12" cy="125.77" r="0.35"/><circle class="cls-23" cx="372.97" cy="79.05" r="0.54"/><circle class="cls-23" cx="393.84" cy="79.59" r="0.54"/><ellipse class="cls-24" cx="62.45" cy="660.37" rx="62.45" ry="14.58"/><ellipse class="cls-25" cx="76.44" cy="552.13" rx="53.64" ry="76.93"/><path class="cls-25" d="M58.56,407.18s19.14,56.14,15,80.44c-1.05,6.11-11.06,5.91-23.92,16.73-12,10.1-14.28,15.24-18,14.58-7.86-1.41-11.09-27.45-7.17-50.75C28.79,442.48,58.56,407.18,58.56,407.18Z"/><path class="cls-24" d="M55,426.61s13.92,40.84,10.88,58.5c-.77,4.45-8.05,4.3-17.4,12.17-8.72,7.34-10.38,11.08-13,10.61-5.72-1-8.07-20-5.22-36.91C33.37,452.29,55,426.61,55,426.61Z"/><path class="cls-25" d="M129.86,426.76S120,476,117.48,507.56c-.5,6.2-12,1.84-27.1,7.7-14.14,5.46-17.87,9.53-21,7.68-6.68-4-1.21-29.6,9.85-50.22C91.46,450,129.86,426.76,129.86,426.76Z"/><path class="cls-24" d="M121,442.09s-6.06,30.3-7.61,49.72c-.31,3.81-2,1.75-13.37-1.49-9-2.55-12.59-4.26-14.51-5.4-4.11-2.45-2.45-1.86,4.36-14.55C97.38,456.37,121,442.09,121,442.09Z"/><path class="cls-25" d="M284.51,639.32c0,35.18-78.51,47.51-141.48,47.51S29,658.31,29,623.12s51.05-63.7,114-63.7c40.12,0,86,10,91.21,13C243,577.36,284.51,614.19,284.51,639.32Z"/><ellipse class="cls-24" cx="107.53" cy="674.95" rx="62.45" ry="14.58"/><path class="cls-25" d="M168.42,682.22c0,8.71-31.58,18.1-66.07,18.1s-62.45-3.5-62.45-15.76c0-19.27,28-15.76,62.45-15.76,15.3,0,29-2.71,38.61-8.76C159.61,648.36,168.42,677.38,168.42,682.22Z"/><path class="cls-26" d="M64.37,572.27c4.7-1.74,15.7,2.67,18.47,8.83s-5.24,8.83-5.36,19.76c-.07,6.43,2.85,10.31,0,11.36C67.35,616,61.34,602.56,60.2,596.66a37.76,37.76,0,0,1,.6-16.82C61.81,575.3,62.36,573,64.37,572.27Z"/><path class="cls-24" d="M283.47,645.8c3.15,12.55-19.8,43.06-56.49,53.05s-71,2-71,2-2-37.4,34.71-47.39S280.32,633.25,283.47,645.8Z"/><path class="cls-24" d="M88.1,540c10.3,0,22.66-.78,29.54,3.4a11.05,11.05,0,0,1,5.18,12.15c-2.59,11.17-11.82,33.52-34.72,33.52s-34.72-22.89-34.72-36.44S65.2,540,88.1,540Z"/><ellipse cx="61.67" cy="528.11" rx="4.66" ry="4.86"/><ellipse cx="96.91" cy="528.11" rx="4.66" ry="4.86"/><ellipse class="cls-18" cx="64" cy="526.76" rx="1.3" ry="1.35"/><ellipse class="cls-18" cx="99.24" cy="526.76" rx="1.3" ry="1.35"/><path class="cls-24" d="M131.28,618.26c1.84-2,11.67,4.89,17,9.18,9.81,7.84,26.62,21.28,25.81,38.87-.5,10.76-7.49,20.66-10.84,20-3-.62,5.06-15.46,0-28.62-2.67-6.88.26-.9-10.36-17.81C140.91,620.81,130.89,618.68,131.28,618.26Z"/><path d="M81.06,572.42c-.5-.45-.2-1.4,0-2a8.4,8.4,0,0,1,3.14-4,13.05,13.05,0,0,1,6.71-2,16,16,0,0,1,5.82.4,11,11,0,0,1,5.37,2.81,6.14,6.14,0,0,1,1.79,4c0,.74-.23,1-.45,1.2a4.07,4.07,0,0,1-2.69,1.23c-1.24,0-2.81-1.06-3.13,0a1.56,1.56,0,0,0,.45,1.61c.8.67,1.32.15,1.42.4s-1.42,2-4.55,2.41a14.91,14.91,0,0,1-5.37,0c-2.32-.44-3.73-1.58-3.67-2,0-.27.13-.13,1-.8.1-.08,1.05-.86.9-1.61-.21-1-1.35,0-3.58,0A4.34,4.34,0,0,1,81.06,572.42Z"/><path class="cls-27" d="M488.47,648.36c-1.17.26-11.57,2.35-19.46-4.73-6.93-6.22-6.86-15-6.83-17.88.1-12.12,8.74-20.4,10-21.56,4.24-3.94,6.28-3.44,8.94-7.36.6-.89,5.64-8.62,2.1-16.83-2.83-6.55-10.24-11.34-15.77-10s-6.23,8-10.52,7.89c-3.54-.11-6.82-4.77-7.36-8.94-1.05-8,8-13.46,8.41-13.68,6.29-3.65,13-2.07,17.35-1,9.73,2.29,15.85,8.07,19.46,11.57,5.46,5.29,10.57,10.68,11,22.09.11,2.51,1,11.48-4.73,17.35-4.15,4.25-6.11,5.62-8.94,10.52-1.9,3.3-2.87,8.49-.52,11.57,3,3.89,9.2,1.68,10.51,4.2C503.14,633.45,501.14,637.8,488.47,648.36Z"/><path class="cls-28" d="M551.57,600.77c0,10.78,3.49,29.74,0,38.13-6.05,14.56-22,15.25-33.91,15.25-10.68,0-24,0-30.24-12.1-4.7-9.16-3.68-28.59-3.68-41.28,0-29.48,15.18-53.37,33.92-53.37S551.57,571.29,551.57,600.77Z"/><path class="cls-28" d="M553.15,544.5c.1,12.89-19.68,25.51-37.6,25.51C498,570,478.31,557.86,478,544.5c-.17-6.34,4.06-11.3,6.31-13.93,10.12-11.85,26.21-11.64,31.29-11.57s17.36.42,27.61,9.46C546.73,531.62,553.1,537.24,553.15,544.5Z"/><path class="cls-28" d="M485.31,507.43c-2.09,3.47-1.11,6-1.05,14.2.06,8.52-1,10.57.53,11.57,1.86,1.23,4.24-1.39,13.67-5.26,6-2.48,7.08-2.25,7.89-3.68,3.43-6.11-8.74-22.79-16.3-21C487.5,503.81,486,506.39,485.31,507.43Z"/><path class="cls-27" d="M488.49,512.12c-1.31,2.17-.69,3.77-.65,8.9,0,5.34-.62,6.63.32,7.25,1.17.77,2.66-.87,8.57-3.29,3.78-1.55,4.44-1.41,4.95-2.31,2.15-3.83-5.48-14.29-10.22-13.19A5.37,5.37,0,0,0,488.49,512.12Z"/><path class="cls-28" d="M545.57,508.48c2.09,3.47,1.11,6,1,14.2-.06,8.52,1,10.58-.53,11.57-1.85,1.23-4.24-1.39-13.67-5.26-6-2.47-7.08-2.24-7.89-3.68-3.43-6.11,8.74-22.79,16.3-21C543.38,504.87,544.94,507.44,545.57,508.48Z"/><path class="cls-27" d="M542.68,622.74c-4,20.61-7.2,37.31-16.71,35.47-12.42-2.4-6.27-18.54-2.29-39.14S530.16,577,535.41,578,546.67,602.13,542.68,622.74Z"/><path class="cls-27" d="M494.64,622.74c4,20.61,7.21,37.31,16.71,35.47,12.43-2.4,6.28-18.54,2.3-39.14S507.17,577,501.92,578,490.66,602.13,494.64,622.74Z"/><path class="cls-27" d="M542.23,512.65c1.31,2.17.69,3.76.66,8.9,0,5.34.61,6.63-.33,7.25-1.17.77-2.66-.87-8.57-3.3-3.78-1.55-4.44-1.41-5-2.31-2.15-3.82,5.48-14.28,10.22-13.18A5.3,5.3,0,0,1,542.23,512.65Z"/><ellipse class="cls-28" cx="491.98" cy="627.5" rx="14.29" ry="26.94" transform="translate(-169.91 182.86) rotate(-18.01)"/><ellipse class="cls-28" cx="544.04" cy="628.02" rx="26.94" ry="14.29" transform="translate(-221.42 951.23) rotate(-71.99)"/><ellipse class="cls-28" cx="497.94" cy="652.31" rx="8.41" ry="6.05"/><ellipse class="cls-27" cx="508.98" cy="652.31" rx="8.41" ry="6.05"/><ellipse class="cls-28" cx="537.9" cy="652.31" rx="8.41" ry="6.05"/><ellipse class="cls-27" cx="528.44" cy="652.31" rx="8.41" ry="6.05"/><ellipse cx="504.18" cy="542.54" rx="3.02" ry="3.14"/><ellipse cx="526.97" cy="542.54" rx="3.02" ry="3.14"/><ellipse class="cls-18" cx="505.68" cy="541.67" rx="0.84" ry="0.87"/><ellipse class="cls-18" cx="528.48" cy="541.67" rx="0.84" ry="0.87"/><path class="cls-27" d="M515.82,558.18a6.33,6.33,0,0,1-6.58,6c-3.63,0-5.57-2.86-6.57-6-1.58-5,4.73-5.53,6.57-6C512.73,551.13,515.82,554.84,515.82,558.18Z"/><path class="cls-27" d="M527.38,558.18c-1.4,3-2.94,6-6.57,6a6.32,6.32,0,0,1-6.57-6c0-3.34,3.06-7,6.57-6C524.75,553.18,529,554.76,527.38,558.18Z"/><path class="cls-29" d="M511.38,553.46c-.17-.16-.07-.52,0-.75a3.07,3.07,0,0,1,1-1.5,4.05,4.05,0,0,1,2.25-.75,5,5,0,0,1,2,.15,3.55,3.55,0,0,1,1.8,1,2.35,2.35,0,0,1,.6,1.5c0,.28-.08.39-.15.45s-.45-.14-.9-.15-1,.22-1,.61a.61.61,0,0,0,.15.6c.27.25.71.05.75.15s-.75.74-1.8.9a4.79,4.79,0,0,1-1.81,0c-.77-.17-1.52-.59-1.5-.75s.31-.05.6-.3c0,0,.35-.32.3-.6s-.45-.61-1.2-.61C511.85,553.46,511.56,553.64,511.38,553.46Z"/></g></g></svg>