<svg xmlns="http://www.w3.org/2000/svg" xmlns:xlink="http://www.w3.org/1999/xlink" viewBox="0 0 673.07 685.63"><defs><style>.cls-1,.cls-2,.cls-3{opacity:0.3;}.cls-1{fill:url(#Безымянный_градиент_12);}.cls-2{fill:url(#Безымянный_градиент_12-2);}.cls-3{fill:url(#Безымянный_градиент_12-3);}.cls-4{fill:#f8d994;}.cls-5{fill:#835c37;}.cls-6{fill:#d6cfe8;}.cls-7{fill:#5a5550;}.cls-8{fill:#4b453e;}.cls-9{fill:#f6c08a;}.cls-10{fill:#1d1d1b;}.cls-11{fill:#75b959;}.cls-12{fill:#5e6385;}.cls-13{fill:#6c5845;}.cls-14{fill:#ba5237;}.cls-15{fill:#e55639;}.cls-16{fill:#a66f3d;}.cls-17{fill:#fff;}.cls-18{fill:#f08a90;}.cls-19{fill:#709d69;}.cls-20{fill:#f6bb31;}.cls-21{fill:#f29877;}.cls-22{fill:#fffbf5;}.cls-23{fill:#c9c6c5;}.cls-24{fill:#d5cecc;}.cls-25{fill:#f8b9ff;}.cls-26{fill:#f2bb64;}.cls-27{fill:#ffd274;}.cls-28{fill:#f79292;}</style><radialGradient id="Безымянный_градиент_12" cx="325.72" cy="600.74" r="124.22" gradientTransform="translate(-22.42 326.33) scale(1.2 0.41)" gradientUnits="userSpaceOnUse"><stop offset="0"/><stop offset="0.16" stop-color="#3c3e38"/><stop offset="0.32" stop-color="#707468"/><stop offset="0.48" stop-color="#9ca191"/><stop offset="0.63" stop-color="#bdc4b0"/><stop offset="0.77" stop-color="#d5ddc7"/><stop offset="0.9" stop-color="#e4ecd4"/><stop offset="1" stop-color="#e9f1d9"/><stop offset="1" stop-color="#fff"/></radialGradient><radialGradient id="Безымянный_градиент_12-2" cx="191.8" cy="650.96" r="124.22" gradientTransform="translate(-22.42 377.35) scale(1.2 0.41)" xlink:href="#Безымянный_градиент_12"/><radialGradient id="Безымянный_градиент_12-3" cx="594.65" cy="635.74" r="124.22" gradientTransform="translate(116.14 412.39) scale(0.73 0.33)" xlink:href="#Безымянный_градиент_12"/></defs><g id="Layer_2" data-name="Layer 2"><g id="Слой_1" data-name="Слой 1"><ellipse class="cls-1" cx="369.05" cy="571.82" rx="208.1" ry="42.27"/><ellipse class="cls-2" cx="208.1" cy="643.36" rx="208.1" ry="42.27"/><ellipse class="cls-3" cx="547.48" cy="622.22" rx="125.59" ry="34.14"/><path class="cls-4" d="M424,18.47c-4-3.58-14.14,1.89-14.64,2.16a29.42,29.42,0,0,0-9.59,8.64c-6.89,9.46-9,22.54-7.68,31.91a36.85,36.85,0,0,1,.48,9.59c-.5,5.48-2,6.51-2.16,10.08-.33,6,3.23,12.4,8.16,15.83,5.12,3.57,10.51,3.06,17.51,2.4,7.22-.68,20.3-1.91,25.91-10.55a45.77,45.77,0,0,1,9.36-10.8c.53-.49.71-2.47,1.84-2.32,1.68.23.12,1.56,2.12,3.28,1.13,1,4.46-.85,5.27-2.28,1-1.8,1.05-2.29,1.08-6.12,0-2.08.05-5,1.68-7.67s3.11-2.36,3.6-4.32c.57-2.25-.72-5.44-3.12-6.24s-4.85,1.06-6,2.4c-1.68,2-1.08,3.6-2.63,4.56-1.88,1.15-3.23.13-3.48-1-.21-.95-.16-1.29,1.32-3.28,1.65-2.23,1.41-4.5,1.44-10.32,0-7.37.43-6.29.24-8.87-.17-2.21-1.13-14.62-7-16.56-2.52-.84-3.12,1.23-12.24,3.12-4.9,1-7.54,1-9.35-.48C424.76,20.46,425.19,19.54,424,18.47Z"/><path class="cls-4" d="M445.82,87.37c3.48,2.68,2.12,5.26,5.52,16.32,3.69,12,7.07,23,16.07,30.22,2.66,2.13,6,4.05,5.52,5.76s-4.81,1.92-9.6,2.4c-15.15,1.53-14.79,4.89-27.35,5.52-5,.25-11.31.51-18.71-2.16-4.48-1.61-11.58-4.17-13.19-9.84-.29-1-.69-3.1,3.83-13.43,3.4-7.74,4.67-8.94,7.44-15.11,5-11.2,3.23-12.59,6.48-16.08C427.72,84.65,439.7,82.67,445.82,87.37Z"/><path class="cls-5" d="M431.19,6.57c-3.52-4.32-4.16-4.78-4.8-5.15C421.7-1.27,416.07.63,415.11,1c-1.7.57-6.05,2-8.16,6.32-2.26,4.61-.66,9.9,1.92,13.11,2.8,3.46,6.62,4.32,11.28,5.38,3.65.83,9.35,2.12,15.11-.23,4.69-1.92,5.82-4.76,9.12-4.45s5.47,3.43,6.48,4.91c5.79,8.5,3,20,1.2,27.39-1.65,6.77-3.65,14.59-10.32,22.23-4.84,5.55-5.51,9-11,11.94-5.86,3.11-11.06,2.76-12.61,1.86-2.68-1.56-3.36-6.24-5.63-6.78-1.73-.41-2.48,2-6,3a9.86,9.86,0,0,1-8.15-.93c-1.4-1-2.31-2.34-3.36-5.39-2.88-8.36-1.87-15.07-2.88-15.21-.31,0-.81.52-2.16,4.45-2.23,6.52-1.79,7.76-3.12,11.23-1.39,3.64-2.15,3-6.47,10.53-2.16,3.77-3.24,5.66-3.6,7-2.15,8,3.53,15.66,4.07,16.38,4.21,5.49,9.89,7.3,15.6,9.13A47.88,47.88,0,0,0,429.75,121c4.17-1.84,6.42-2.84,8.63-5.15,3-3.09,3-5.59,6-17.55,2.13-8.57,3.23-12.91,4.56-15.45,2.62-5,4.58-6,5.76-10.76.85-3.44.1-4.06.72-10.3.44-4.57,1-5.94,1.91-11.23A99.28,99.28,0,0,0,459,36.06c.2-8,.42-16.66-5.27-21.53-1-.87-5-4-8.88-3-3,.74-3.47,3.34-5.76,3.28C437.24,14.71,436.4,13,431.19,6.57Z"/><path class="cls-6" d="M424.83,541.5h16.1v14.08s-12.65.32-13.52,0S424.83,541.5,424.83,541.5Z"/><path class="cls-6" d="M486.9,545.3c.32,1.28,2.22,12.54,2.22,12.54l14.72-2.7-2.91-12.45Z"/><path class="cls-7" d="M426.16,553.06c-1,.71-.32,1.6-1.28,2.88-1.51,2-4.43,1.6-9.92,1.92-6,.35-9,.56-9.91,2.24s.42,4.81,2.24,6.4c2.09,1.82,4.66,1.73,8.31,1.59,3.89-.14,8.23-.3,11.84-2.87a6.39,6.39,0,0,1,3.52-1.6c1.4-.09,1.77.53,4.16,1.28a11.64,11.64,0,0,0,6.07.64,4.92,4.92,0,0,0,3.2-1.6c1.49-2.13-.44-5.59-1.6-7.68s-2-2.45-2.24-2.56c-1.51-.58-2.48.53-4.48,1C431.46,555.65,428.25,551.51,426.16,553.06Z"/><path class="cls-8" d="M487.89,552.94c-.16.14-.31.33-.64,3.2a24.09,24.09,0,0,0-.32,4.48,6.34,6.34,0,0,0,2.24,4.48c1.16.83,3.16,1.46,4.48.64,1.47-.92.74-2.8,2.24-3.84s3.4-.34,4.48,0c2.57.8,2.78,2.07,5.12,3.2,1.26.61,3.1.73,6.71,1a36.07,36.07,0,0,0,8,0c3-.49,6.09-1,7-3.2a4,4,0,0,0-.64-4.16c-1.24-1.26-3-.64-7.68-.64-3.11,0-4.66,0-5.76-.32-5.81-1.7-7.23-8.83-10.23-8.32-1.06.18-.84,1.06-3.2,2.56a11.33,11.33,0,0,1-4.8,1.92C491.26,554.31,489.17,551.87,487.89,552.94Z"/><path class="cls-5" d="M423.49,44c1.07.49,1.68-.12,3.72-.24a8.62,8.62,0,0,1,5,.84c1.29.75,1.55,1.6,3.84,3,.74.44,1.23.67,1.56.47.61-.35.4-1.94.12-2.87-1.08-3.63-5.49-5.26-6.84-5.76a10,10,0,0,0-5.51-.72c-1,.18-3.35.62-3.72,2.16A3,3,0,0,0,423.49,44Z"/><path class="cls-5" d="M400.7,45.2c.62.22,1.09-.93,2.64-1.56a7.88,7.88,0,0,1,2.87-.36,11.41,11.41,0,0,1,3.48.24c2,.51,2.44,1.39,3.36,1.08a2.66,2.66,0,0,0,1.44-2.28,3.34,3.34,0,0,0-1.08-2.64c-.53-.49-1.12-.67-5-.84-3-.13-3.41-.05-3.83.12-.78.31-1.56,1.08-3.12,2.64-.89.88-1.27,1.36-1.32,2S400.22,45,400.7,45.2Z"/><path class="cls-9" d="M413.18,81.26a4.53,4.53,0,0,0,3-2.46c.12-.32.33-1.06-.56-3.77s-1.35-4.1-2.49-5.08-3.54-2.08-4.84-1.21c-.43.28-.73.74-1.2,3.55-.55,3.3-.83,4.94-.43,5.84A5.91,5.91,0,0,0,413.18,81.26Z"/><path class="cls-5" d="M412.77,65.49c1.68.49,2.63-1.72,5.2-1.82,1.47-.07,2.54.61,4.6,2,4.15,2.72,4.06,4.53,6.49,5.24,3.26,1,5.77-1.63,6.52-.71s-1.62,5.12-5.05,7.63a15.54,15.54,0,0,1-10.46,2.84c-2.12-.2-4.43-.41-6-2.13-2.75-2.94-1.5-8.24-2.12-8.29-.4,0-.38,2.24-1.93,4.29a9.3,9.3,0,0,1-5,3.14,11.84,11.84,0,0,1-8.73-1.15,12.29,12.29,0,0,1-5.56-7.71c-1-3.66-.32-7.53.54-7.67.56-.09.74,1.43,2.45,2.53a6.67,6.67,0,0,0,3.92.93c1.51-.07,2.68-.61,5-1.69a14,14,0,0,1,2.88-1.28,6.1,6.1,0,0,1,4,.29C411.6,63,411.19,65,412.77,65.49Z"/><path class="cls-9" d="M417.12,42.29a43.36,43.36,0,0,1-1.38,5.43A21.14,21.14,0,0,1,412.38,54c-2.62,3.26-4.55,3.31-5,5.63a6.23,6.23,0,0,0,1,4.29,6.16,6.16,0,0,0,4.1,3.07c.26,0,3,.48,4.3-1.11,1.14-1.41.13-3.16-.25-7.84a54.89,54.89,0,0,1,0-5.9C416.62,46.42,417.28,42.31,417.12,42.29Z"/><path class="cls-4" d="M385.52,247.2s-18.21-9.85-43.57,1.55l38.34,79.39s4,10.06,2.6,12.64c-5.51,10.13-1.05,15.19,1.78,20.84,3.66,7.31,12.78,11.39,15.14,9.5,1.59-1.27-.52-4.73-1.73-14-.78-5.89-.39-8-.63-14.19a144,144,0,0,0-3.11-23.44C388.53,287.66,385.52,247.2,385.52,247.2Z"/><ellipse class="cls-10" cx="427.57" cy="51.66" rx="3.04" ry="3.52"/><ellipse class="cls-10" cx="406.5" cy="50.62" rx="2.52" ry="3.12"/><path class="cls-11" d="M405.28,129.41a20.81,20.81,0,0,0,5.75,6.72c3.21,2.27,6.49,2.81,10.08,3.36a44.8,44.8,0,0,0,12.47,0,59.49,59.49,0,0,0,15.36-4.32c6-2.5,11.51-9.59,11.51-9.59a14,14,0,0,0,9.6,4.31c6.19.39,9.44,0,12.95.48,6.49.83,11,2.77,17.76,5.76,10,4.42,15,6.62,19.67,11,6.05,5.73,8.77,11.88,12,19.19,2.24,5.09,4.76,10.8,5.75,18.71,1.11,8.84-1.11,9.16-.48,24,.2,4.64-.18,9.32.48,13.92a31.72,31.72,0,0,1,0,8.15,39.49,39.49,0,0,1-9.59,1.92A155.94,155.94,0,0,0,510.83,235s-17.64.66-20.15,4.32c-1.16,1.7-.78,3.56-.48,6.24,1.05,9.34,1.09,11.38,1,21.59-.28,22.72,1,41.26,1,41.26a27.12,27.12,0,0,1-8.16.48c-14.57-1.79-14.52,1.71-36,1.92a352.17,352.17,0,0,0-36,1.92s-18.12,1.63-24-1.44c-4.57-2.39-14.39-30.23-14.39-30.23l-5.76-20.15-1.44-10.55-23,1.44a53.55,53.55,0,0,1-8.16-16.8c-1.64-6-2.2-10.33-3.36-21.11-2.71-25.24-2.58-28.62-1.92-32.63,1-5.87,2.8-10,6.24-18.23,4.76-11.39,8.88-17.15,10.8-19.67a70.85,70.85,0,0,1,7-7.68s11.25-1.92,24-3.36C393.37,130.55,405.28,129.41,405.28,129.41Z"/><path class="cls-12" d="M397.44,324.86v57.89l6.4,62.38s9.91,51.82,9.91,52.78,9.28,48.3,9.28,48.3h19.51V391.39s8.32,36.47,8.64,39,15,48.94,15,48.94l13.44,46.06,6.07,20.79H502V523.82l-5.76-45.74-1.92-59.5,2.24-40.94L496,346l-2.56-18.55-4.64-8Z"/><path class="cls-4" d="M489.2,239.4s18.06-15.17,49-8.27l-24.55,97.42s-2.16,12.16,0,14.71c8.48,10,4.66,16.72,2.8,23.68-2.4,9-11.64,15.64-14.71,14.07-2.07-1.05-.52-5.4-1.28-16-.49-6.76-1.41-9-2.56-16-2-12.18-1.79-21-1.92-26.87C495.13,285.26,489.2,239.4,489.2,239.4Z"/><polygon class="cls-13" points="491.64 323.98 395.84 327.42 388 311.26 492.06 307.41 491.64 323.98"/><path class="cls-4" d="M253.17,497.49c.72,3.84,7.43,37.66,8.15,40.3s5.52,23,5.52,23H278.6L282,529.16V498.21Z"/><polygon class="cls-4" points="297.79 501.57 301.15 529.16 308.11 556.51 308.11 560.82 318.18 559.14 318.18 543.07 321.78 515.24 325.14 489.09 297.79 501.57"/><path class="cls-14" d="M306.84,556c1.66-.46,2.36,1.48,5,1.44,3.66-.06,4.77-3.74,7.91-3.6,2,.09,2.21,1.57,5,3.36,4,2.5,8.27,2.57,12.24,2.63,6.12.11,9.22-1.4,10.07,0s-.89,3.7-2.16,5c-3.74,4-11.35,5.78-17.51,3.6-2.51-.89-4.34-2.29-7.44-1.92-1.79.22-2.43.83-4.55,1.68-2.28.91-8.15,3.25-10.8,1.2C301.26,566.82,303.38,557,306.84,556Z"/><path class="cls-14" d="M279.44,559.2c-1.66-.47-2.37,1.48-5,1.43-3.66,0-4.77-3.73-7.92-3.59-2,.08-2.2,1.57-5,3.36-4,2.5-8.28,2.57-12.24,2.63-6.12.11-9.23-1.4-10.08,0s.9,3.7,2.16,5c3.74,4,11.35,5.78,17.52,3.6,2.51-.89,4.34-2.29,7.43-1.92,1.8.21,2.43.83,4.56,1.68s8.15,3.25,10.8,1.2C285,570,282.89,560.15,279.44,559.2Z"/><path class="cls-15" d="M248.46,258.54a26,26,0,0,0-3.84,2.56,29.85,29.85,0,0,0-9.27,14c-6.57,19.22-19,36.07-25.91,55.17-17.7,48.79-26.55,73.18-39.35,96.45,0,0-15.42,28-19.19,61.89-.3,2.68-1.23,11.51,1.44,12.48,1.74.63,3.89-2.52,7.2-5.28,6.82-5.7,14.76-6.53,21.11-7.2,10.75-1.13,19.08,1.76,29.27,5.28,5.79,2,5.86,2.6,15.83,6.24,8.35,3.05,12.52,4.57,17.75,5.76,7.33,1.66,12.82,1.76,23.51,1.91a177.22,177.22,0,0,0,25.91-.95c11.84-1.42,20.38-2.44,30.23-7.2s8.72-7.3,16.8-10.08c6.28-2.16,13.39-1.95,27.34-1.44,13.55.5,15.61,1.53,23,.48a53.77,53.77,0,0,0,16.79-4.8c4.2-2,9.25-6.33,19.19-14.87,7.84-6.73,8.49-7.67,8.64-9.12.68-6.4-9.71-10.32-19.67-19.67-7.5-7-10-12.66-18.24-27.83-14.34-26.36-10-15.1-34.06-58.05-15-26.72-22.5-40.08-28.79-53.26-5.3-11.11-13.93-21-16.32-33.11-.57-2.89-9.75-18.39-9.75-18.39L305.88,248S250.63,257.34,248.46,258.54Z"/><path class="cls-16" d="M311.18,71.94c3.6,1.15,2.93,8.08,6.56,23.35,1.87,7.87,5.6,11.06,6.72,18.23,1.3,8.42-1.58,12.74-4.48,17.43-3.78,6.13-11.35,7.49-16,8.32-4.36.79-11.46,2.06-15.67-1.92-2.6-2.46-3.34-6.19-3-13.43.27-6.58,1.58-30.09,18.87-47.82C307.37,72.79,309.48,71.39,311.18,71.94Z"/><path class="cls-4" d="M288,128.53c4.14,7.07-1.33,9.36,2.77,18.84,2.84,6.58,7.35,9.82,7.55,17.38.06,2.21.08,3.73-1,4.9-2.78,3-8.48-1-22.15-2.94-8.13-1.19-12.56-.73-16.86-4.41-1.11-1-3.3-2.87-3.52-5.63s1.58-3.73,3-7.58c.48-1.32.41-1.54,1.26-9.06,1.18-10.45,1.3-9.74,1.25-11.26-.14-5.08-1.32-7.23.26-9.06.79-.91,2.19-1.64,5.28-1.71C271.19,117.89,282.85,119.7,288,128.53Z"/><ellipse class="cls-4" cx="281.92" cy="93" rx="31.67" ry="39.34" transform="translate(-14.89 87.52) rotate(-17.2)"/><path class="cls-16" d="M230.41,84.65c.6-5.17-2.78-7.16-3.36-13.19-.49-5.18,1.46-9.27,2.64-11.76,3.79-7.93,10.48-11.64,16.32-14.87a52.66,52.66,0,0,1,19.67-6.24c6.74-.74,11.27-1.24,16.31,1,7.62,3.32,8.68,9.42,14.16,9.36,3.73,0,3.87-2.89,9.83-5a24.25,24.25,0,0,1,15.84-.24c2.09.73,8.07,2.8,11.51,9.12a19.26,19.26,0,0,1,1.44,14.39c-.4,1.36-2.69,9-8.63,11-10.31,3.47-24.78-12.38-30.71-8.64-.33.2-1.44,1-2.64,1.92-3.37,2.63-4.25,4.06-5.28,4.8-5.32,3.82-17.54-8.56-22.55-5-1.12.79-.72,1.56-2.64,6.48-2.05,5.25-3.16,7.85-4.56,9.35-4.61,5-11.46,2-12.79,5.2-.68,1.61.64,3.48,9.91,14.87,5.32,6.53,5.91,7.17,6.72,9,.6,1.31,4.45,9.79.64,17.11-5.25,10.12-20.47,9.17-21.11,9.12-13.19-1-20.32-12.37-21.59-14.39-1.59-2.53-7.72-12.3-4.32-20.8,1.54-3.85,3.6-3.83,10.55-13.75C229.84,87.57,230.26,86,230.41,84.65Z"/><path class="cls-4" d="M339.71,217.56s9.78,5.4,7.67,79.33h0L349.3,303a39.38,39.38,0,0,1,7.36,12.47c2.25,6.26,3.35,14.47,1.28,15.36-1.17.5-2.37-1.78-8.32-6.4-5.42-4.22-5.76-3.37-7.35-5.44-2.78-3.61-3.24-8.12-3.84-14.07-.33-3.25-.06-3.19-.32-5.12-.95-6.85-5-11.33-7-14.08-3.56-4.71-5.79-13.48-10.24-31-2.4-9.47-2.2-11.1-4.47-17-2.88-7.4-4.84-9.07-4.16-11.83C313.89,219,330.32,212.38,339.71,217.56Z"/><ellipse class="cls-4" cx="250.41" cy="94.17" rx="6.72" ry="5.44"/><ellipse class="cls-17" cx="250.57" cy="101.89" rx="4.32" ry="5.24"/><path class="cls-16" d="M309.58,87.37c0,1.46-1.37-.4-4.16-.4s-5.91,1.86-5.91.4,2.25-2.64,5-2.64S309.58,85.91,309.58,87.37Z"/><path class="cls-16" d="M285.75,88.49c-1.24,2.09-4.38.53-9,.53s-8,2.08-8,.75,3.7-4.08,8.27-4.08S286.43,87.35,285.75,88.49Z"/><path class="cls-4" d="M210.05,213.07s-9.78,5.4-7.68,79.33h0l-1.92,6.08A39.62,39.62,0,0,0,193.1,311c-2.25,6.26-3.35,14.48-1.28,15.36,1.17.5,2.37-1.77,8.31-6.4,5.43-4.22,5.77-3.36,7.36-5.44,2.78-3.6,3.24-8.11,3.84-14.07.33-3.24,0-3.19.32-5.12.95-6.85,5-11.32,7-14.07,3.56-4.72,5.79-13.49,10.23-31,2.4-9.47,2.21-11.1,4.48-17,2.87-7.4,4.84-9.07,4.16-11.83C235.86,214.5,219.44,207.89,210.05,213.07Z"/><circle class="cls-10" cx="281.22" cy="97.63" r="2.7"/><circle class="cls-10" cx="304.94" cy="97.49" r="2.56"/><path class="cls-9" d="M294.2,91.74c.93-.32,3.07,3.54,4.2,6.18,1.34,3.14,2.49,5.82,1.21,7.82-.89,1.39-2.92,2.4-4.43,1.8s-1.82-2.22-2-2.8c-.54-2,.2-3.19.66-5.62C294.73,94.6,293.45,92,294.2,91.74Z"/><path class="cls-18" d="M301.94,112c-.39-.33-1.87.94-2.64,1.44-5.41,3.48-17.76-3.24-17.76-3.24a9.55,9.55,0,0,0,.72,2,14.09,14.09,0,0,0,2.28,3.84,9.87,9.87,0,0,0,5.4,2.88c2.76.46,4.83-.48,7-1.44,3.2-1.45,4.24-3.14,4.56-3.72C301.55,113.59,302.27,112.25,301.94,112Z"/><path class="cls-15" d="M320.75,224.88a19.72,19.72,0,0,0,6.72,1c3.36-.18,4.63-1.26,10.24-3.52,7.82-3.17,10.13-3,10.87-5.12.65-1.86-.58-3.59-2.56-7-2.54-4.42-4.36-9.23-6.71-13.75-6.77-13-3.3-14.35-8-20.15-3.27-4-4.25-2.54-18.87-11.84-8.2-5.22-11.1-7.73-12.48-6.72-1.92,1.42,1.36,8.12,4.16,15.68C314.38,201.08,311.06,221.35,320.75,224.88Z"/><path class="cls-15" d="M247.18,157.82a27.67,27.67,0,0,0-8,3.62c-3.75,2.18-6.25,4.4-12.48,10.54-7.11,7-10.67,10.52-11.52,11.86-3.06,4.82-1.57,5.12-6.39,17.78-3.24,8.5-5,11.16-3.52,13.83.79,1.46,1.72,1.46,8.95,4.94,7.43,3.58,7,3.87,9,4.29,5.93,1.27,8.16-1.79,13.12-1,5.68.92,9.18,6,10.87,8.23a20.41,20.41,0,0,1,4.48,9.88c.13,1,1.15,8.92-2.88,14.82-.63.92-1.53,2-1.28,3.3.21,1,1.21,2.34,5.44,3.62a32.76,32.76,0,0,0,11.84,1.32,221.36,221.36,0,0,0,23-3.63c18.45-4.24,21.1-5.76,21.75-8.23,1-3.73-3.52-6.26-2.24-11.2.32-1.22.94-2.39,6.4-7.24,7.73-6.88,9.17-6.92,10.87-9.88,2-3.51,2-6.89,1.92-12.19,0-2.8-.37-8.62-3.52-17.13-2.74-7.38-4.11-7.38-8.31-16.14-6.33-13.17-6.7-20.46-10.24-20.75-2.88-.23-3.62,4.53-9.6,8.24A24.14,24.14,0,0,1,281.73,170C265.61,170.07,259.57,155.08,247.18,157.82Z"/><path class="cls-17" d="M257.42,157.38a42.17,42.17,0,0,1,6.4,4.16c7.17,5.2,16.36,4.88,17.91,4.8,8.49-.44,13.3-5.06,15.35-2.88,1.08,1.15.66,3.41,0,4.8-1.58,3.32-5.86,4.39-13.75,5.44-13.86,1.83-20.79,2.74-26.23.64-5.86-2.27-14.15-7.73-13.44-13.12.38-2.82,3.21-5.49,6.08-6.08C252.08,154.67,254.08,155.66,257.42,157.38Z"/><path class="cls-17" d="M295.16,154.18c-.81.77,1.62,3.12,1.28,6.72-.19,2.13-1.19,2.9-.64,3.84.47.79,1.63,1,5.12,1,5.36-.1,8.05-.15,8.64-1.28.95-1.84-1.35-5.34-3.84-7-1.87-1.28-2.3-.48-7.68-2.56C296.45,154.21,295.58,153.79,295.16,154.18Z"/><polygon class="cls-4" points="378.17 417.64 357.87 417.64 357.87 383 373.09 383 378.17 417.64"/><path class="cls-6" d="M360.06,561.63h6.83v6s-5.37.14-5.73,0S360.06,561.63,360.06,561.63Z"/><path class="cls-6" d="M386.38,563.24c.13.55.94,5.32.94,5.32l6.24-1.14-1.23-5.28Z"/><path class="cls-7" d="M360.62,566.54c-.4.3-.13.68-.54,1.22-.64.84-1.88.67-4.2.81-2.54.15-3.82.24-4.21.95s.18,2,.95,2.71,2,.74,3.53.68a8.85,8.85,0,0,0,5-1.22,2.69,2.69,0,0,1,1.49-.68c.6,0,.75.23,1.76.54a4.88,4.88,0,0,0,2.58.28,2.05,2.05,0,0,0,1.35-.68c.64-.9-.18-2.37-.67-3.26s-.84-1-.95-1.08c-.64-.25-1.06.22-1.9.4C362.87,567.64,361.51,565.88,360.62,566.54Z"/><path class="cls-8" d="M386.8,566.48c-.07.06-.13.15-.27,1.36a10.48,10.48,0,0,0-.14,1.9,2.69,2.69,0,0,0,.95,1.9,1.88,1.88,0,0,0,1.9.27c.62-.39.32-1.18.95-1.63a2.29,2.29,0,0,1,1.9,0c1.09.34,1.18.88,2.17,1.36a8.72,8.72,0,0,0,2.85.41,15,15,0,0,0,3.39,0c1.29-.21,2.58-.41,3-1.36a1.69,1.69,0,0,0-.28-1.76c-.52-.54-1.29-.28-3.25-.28a10.6,10.6,0,0,1-2.44-.13c-2.47-.72-3.07-3.75-4.34-3.53-.45.08-.36.45-1.36,1.09a4.83,4.83,0,0,1-2,.81C388.23,567.06,387.34,566,386.8,566.48Z"/><path class="cls-19" d="M350,473.1l-1.56,5.71v18l2.7,25.49s4.18,21.17,4.18,21.57,3.91,20.39,3.91,20.39h8.22V500.37s3.51,14.9,3.64,16,6.34,20,6.34,20l5.66,18.83,2.56,8.49h6.88v-9.15l-2.43-18.69-.81-24.31.95-16.73L390,481.81l-1.08-7.58-.73-4Z"/><path class="cls-4" d="M389.91,447.64c-1.44,1.6-1.45,3.23-.87,15.26.72,15,.84,14.66.65,15.7a31.09,31.09,0,0,0-.21,11.33c.15,1.34.35,2.52.87,2.62.87.16,2.22-2.78,3.92-7.42,3.24-8.84,4.16-14,6.32-22.45,2.94-11.41,4.3-13.66,2.62-15.69C400.61,443.85,393.12,444.09,389.91,447.64Z"/><path class="cls-4" d="M348.92,449.2c1.44,1.6,1.45,3.23.87,15.26-.72,15-.84,14.66-.65,15.69a31.15,31.15,0,0,1,.21,11.34c-.15,1.33-.35,2.51-.87,2.61-.87.17-2.22-2.77-3.92-7.41-3.24-8.84-4.16-14-6.32-22.45-2.94-11.41-4.3-13.66-2.62-15.69C338.22,445.41,345.71,445.65,348.92,449.2Z"/><path class="cls-20" d="M357.83,411.11a7.53,7.53,0,0,0,2,2.38,7.62,7.62,0,0,0,3.57,1.19,15.71,15.71,0,0,0,4.42,0,20.82,20.82,0,0,0,5.45-1.53,12.51,12.51,0,0,0,4.08-3.4,4.92,4.92,0,0,0,3.4,1.53c2.19.14,3.34,0,4.59.17a21.16,21.16,0,0,1,6.29,2c3.55,1.57,5.32,2.35,7,3.91,2.15,2,3.11,4.21,4.25,6.81a22,22,0,0,1,2,6.63c.4,3.13-.39,3.24-.17,8.5.07,1.64-.06,3.3.17,4.93a10.89,10.89,0,0,1,0,2.89,13.94,13.94,0,0,1-3.4.68,55.36,55.36,0,0,0-6.29.68s-6.25.24-7.14,1.53c-.41.6-.28,1.26-.17,2.21a45.27,45.27,0,0,1,.34,7.66c-.1,8.05.34,14.62.34,14.62a9.76,9.76,0,0,1-2.89.17c-5.17-.63-5.15.6-12.75.68a125.63,125.63,0,0,0-12.76.68s-6.42.58-8.5-.51c-1.62-.85-5.1-10.71-5.1-10.71l-2-7.15-.51-3.74-8.16.51a18.85,18.85,0,0,1-2.89-6,42.09,42.09,0,0,1-1.19-7.48c-1-9-.92-10.14-.68-11.56a26.83,26.83,0,0,1,2.21-6.46,30.52,30.52,0,0,1,3.82-7,26.46,26.46,0,0,1,2.47-2.72s4-.68,8.5-1.19C353.61,411.52,357.83,411.11,357.83,411.11Z"/><ellipse class="cls-4" cx="359.16" cy="362.6" rx="37.16" ry="29.91" transform="translate(-93.43 598.47) rotate(-72.8)"/><path class="cls-16" d="M333,357.28c0,1.38,1.3-.38,3.92-.38s5.59,1.76,5.59.38-2.13-2.49-4.75-2.49S333,355.9,333,357.28Z"/><path class="cls-16" d="M355.45,358.34c1.18,2,4.14.5,8.46.5s7.55,2,7.55.71-3.5-3.86-7.81-3.86S354.81,357.26,355.45,358.34Z"/><circle class="cls-10" cx="358.02" cy="367.04" r="2.63"/><ellipse class="cls-10" cx="336.5" cy="366.57" rx="2.55" ry="2.46"/><path class="cls-9" d="M346.09,361.24c-.92-.13-2.24,3.82-2.83,6.46-.71,3.16-1.32,5.84.22,7.48,1.07,1.13,3.12,1.72,4.42.9a3.77,3.77,0,0,0,1.36-2.94c.16-1.94-.74-2.92-1.59-5.1C346.09,364,346.83,361.36,346.09,361.24Z"/><path class="cls-21" d="M340.17,380.5c.36-.31,1.76.89,2.49,1.36,5.11,3.29,16.77-3.06,16.77-3.06a9.59,9.59,0,0,1-.68,1.93,13.21,13.21,0,0,1-2.16,3.62,9.19,9.19,0,0,1-5.09,2.72c-2.61.44-4.56-.45-6.57-1.36-3-1.37-4-3-4.31-3.51C340.53,382,339.85,380.78,340.17,380.5Z"/><path class="cls-16" d="M343.12,347.38s-8.76,3.47-13.78,1.36c-2.74-1.15-4-4.3-5.4-7.71-1.21-3-3.3-8.14-1.2-12.93,2-4.58,6.55-5.88,8.19-6.35.48-.13,7.69-2.09,11,1.82.54.62.93,1.36,1.6,1.36,1.43,0,1.83-3.33,3.6-6.12a12.1,12.1,0,0,1,10-5.67,11.1,11.1,0,0,1,9.19,5.21c1.31,2.31,1.53,5.12,3.4,5.67a3.46,3.46,0,0,0,2-.23,28.63,28.63,0,0,0,5.39-1.81c3.25-1.53,8.74-.36,12.39,2.49,4.61,3.6,6.41,9.94,7,12a18.59,18.59,0,0,0,1,3.18c1.88,4.15,4.41,4.14,6.6,7,3.46,4.57,3.6,13.12.8,17a8.11,8.11,0,0,0-1.6,2.49c-1,2.77.57,4.6.6,7.49.05,4.91-4.31,8.59-5.2,9.29s-5.21,4.16-9,2.27c-2.52-1.26-3.56-4.2-4.39-6.58a16.05,16.05,0,0,1-1-8.39c.37-2.06,1.07-2.93.6-4.08-.6-1.46-2.19-1.13-4.4-2.27a13.39,13.39,0,0,1-6.39-8.16c-.69-2.63,0-4.14-1.4-5.9-.12-.15-1.53-1.92-3-1.58a2.83,2.83,0,0,0-1.6,1.36c-2.06,3.11-7,4.21-8.39,4.53a16.76,16.76,0,0,1-10.39-1.36,15.18,15.18,0,0,1-4.6-3.4A13.27,13.27,0,0,1,343.12,347.38Z"/><ellipse class="cls-4" cx="386.8" cy="366.74" rx="6.34" ry="5.14" transform="translate(-68.66 89.84) rotate(-12.18)"/><polygon class="cls-13" points="389.27 476.89 349.16 476.75 349.24 471.47 388.44 471.17 389.27 476.89"/><circle class="cls-22" cx="335.71" cy="365.73" r="0.44"/><circle class="cls-22" cx="356.84" cy="366.1" r="0.43"/><circle class="cls-17" cx="280.33" cy="96.31" r="0.41"/><circle class="cls-17" cx="303.62" cy="96.25" r="0.35"/><circle class="cls-22" cx="405.47" cy="49.54" r="0.54"/><circle class="cls-22" cx="426.34" cy="50.08" r="0.54"/><ellipse class="cls-23" cx="94.95" cy="630.86" rx="62.45" ry="14.58"/><ellipse class="cls-24" cx="108.94" cy="522.61" rx="53.64" ry="76.93"/><path class="cls-24" d="M91.06,377.66s19.14,56.15,15,80.44C105,464.21,95,464,82.09,474.84c-12,10.09-14.27,15.23-17.94,14.57C56.29,488,53.06,462,57,438.67,61.29,413,91.06,377.66,91.06,377.66Z"/><path class="cls-23" d="M87.53,397.1s13.92,40.83,10.87,58.5c-.76,4.44-8,4.3-17.4,12.17-8.72,7.34-10.38,11.08-13,10.6-5.72-1-8.07-20-5.22-36.91C65.88,422.77,87.53,397.1,87.53,397.1Z"/><path class="cls-24" d="M162.36,397.24S152.5,446.48,150,478c-.49,6.21-11.94,1.84-27.1,7.7-14.13,5.46-17.86,9.53-21,7.68-6.68-4-1.21-29.6,9.86-50.22C124,420.45,162.36,397.24,162.36,397.24Z"/><path class="cls-23" d="M153.51,412.58s-6.07,30.29-7.62,49.71c-.3,3.82-2,1.75-13.37-1.49-9-2.54-12.59-4.26-14.51-5.4-4.11-2.44-2.44-1.86,4.37-14.55C129.89,426.86,153.51,412.58,153.51,412.58Z"/><path class="cls-24" d="M317,609.8c0,35.18-78.51,47.51-141.47,47.51s-114-28.52-114-63.7,51-63.71,114-63.71c40.11,0,86,10,91.21,13C275.52,547.85,317,584.67,317,609.8Z"/><ellipse class="cls-23" cx="140.04" cy="645.43" rx="62.45" ry="14.58"/><path class="cls-24" d="M200.93,652.71c0,8.7-31.59,18.1-66.07,18.1S72.41,667.3,72.41,655c0-19.26,28-15.76,62.45-15.76,15.3,0,28.94-2.71,38.6-8.76C192.12,618.85,200.93,647.87,200.93,652.71Z"/><path class="cls-25" d="M96.88,542.75c4.69-1.73,15.69,2.67,18.47,8.83s-5.24,8.84-5.36,19.77c-.08,6.42,2.84,10.3,0,11.35-10.13,3.74-16.14-9.65-17.28-15.56a37.78,37.78,0,0,1,.6-16.82C94.32,545.78,94.86,543.5,96.88,542.75Z"/><path class="cls-23" d="M316,616.28c3.14,12.55-19.8,43.06-56.49,53.05s-71,2-71,2S186.51,634,223.2,624,312.83,603.73,316,616.28Z"/><path class="cls-23" d="M120.6,510.53c10.31,0,22.66-.79,29.54,3.4a11.06,11.06,0,0,1,5.19,12.14c-2.6,11.18-11.83,33.52-34.73,33.52s-34.72-22.88-34.72-36.43S97.71,510.53,120.6,510.53Z"/><ellipse cx="94.17" cy="498.59" rx="4.66" ry="4.86"/><ellipse cx="129.41" cy="498.59" rx="4.66" ry="4.86"/><ellipse class="cls-17" cx="96.51" cy="497.24" rx="1.3" ry="1.35"/><ellipse class="cls-17" cx="131.75" cy="497.24" rx="1.3" ry="1.35"/><path class="cls-23" d="M163.79,588.75c1.84-2,11.66,4.88,17,9.17,9.81,7.84,26.63,21.28,25.81,38.88-.5,10.76-7.48,20.65-10.84,20-3-.62,5.07-15.45,0-28.61-2.68-6.89.25-.91-10.37-17.82C173.42,591.29,163.4,589.17,163.79,588.75Z"/><path d="M113.57,542.9c-.5-.45-.2-1.4,0-2a8.4,8.4,0,0,1,3.13-4,13.2,13.2,0,0,1,6.71-2,16.43,16.43,0,0,1,5.82.4,10.88,10.88,0,0,1,5.37,2.82,6,6,0,0,1,1.79,4c0,.75-.23,1-.45,1.2a4.07,4.07,0,0,1-2.68,1.23c-1.24,0-2.81-1-3.13,0a1.55,1.55,0,0,0,.44,1.61c.81.67,1.32.15,1.43.4s-1.42,2-4.56,2.41a14.9,14.9,0,0,1-5.37,0c-2.31-.43-3.73-1.58-3.66-2,0-.26.12-.12,1-.8.1-.08,1-.85.89-1.61-.2-1-1.34,0-3.58,0A4.32,4.32,0,0,1,113.57,542.9Z"/><path class="cls-26" d="M521,618.85c-1.16.25-11.57,2.34-19.45-4.74-6.94-6.22-6.86-15-6.84-17.88.1-12.12,8.75-20.4,10-21.56,4.24-3.94,6.29-3.43,8.94-7.36.6-.88,5.65-8.62,2.11-16.83-2.83-6.55-10.24-11.34-15.78-10s-6.23,8-10.52,7.89c-3.54-.1-6.81-4.77-7.36-8.94-1-8,8-13.45,8.41-13.67,6.29-3.66,13-2.08,17.36-1.06,9.72,2.29,15.85,8.08,19.46,11.57,5.45,5.29,10.56,10.68,11,22.09.1,2.51,1,11.48-4.73,17.35-4.16,4.25-6.12,5.62-8.94,10.52-1.91,3.3-2.87,8.5-.53,11.57,3,3.9,9.2,1.68,10.52,4.21C535.64,603.93,533.65,608.28,521,618.85Z"/><path class="cls-27" d="M584.08,571.25c0,10.78,3.49,29.74,0,38.13-6.06,14.56-22,15.25-33.92,15.25-10.67,0-24,0-30.24-12.09-4.69-9.16-3.68-28.6-3.68-41.29,0-29.47,15.19-53.37,33.92-53.37S584.08,541.78,584.08,571.25Z"/><path class="cls-27" d="M585.66,515c.09,12.88-19.69,25.5-37.6,25.5-17.59,0-37.24-12.14-37.6-25.5-.17-6.35,4.06-11.3,6.31-13.94,10.11-11.84,26.2-11.64,31.29-11.57s17.36.42,27.61,9.47C579.24,502.1,585.6,507.72,585.66,515Z"/><path class="cls-27" d="M517.82,477.91c-2.1,3.47-1.11,6-1.05,14.2.06,8.52-1,10.58.52,11.57,1.86,1.23,4.25-1.38,13.68-5.26,6-2.47,7.08-2.24,7.88-3.68,3.43-6.11-8.73-22.79-16.3-21C520,474.3,518.45,476.87,517.82,477.91Z"/><path class="cls-26" d="M521,482.6c-1.31,2.18-.7,3.77-.66,8.9,0,5.35-.61,6.63.33,7.26,1.16.77,2.66-.87,8.57-3.3,3.77-1.55,4.44-1.41,4.94-2.31,2.15-3.83-5.47-14.28-10.21-13.18A5.29,5.29,0,0,0,521,482.6Z"/><path class="cls-27" d="M578.07,479c2.1,3.47,1.11,6,1,14.2-.06,8.53,1,10.58-.52,11.57-1.86,1.23-4.25-1.38-13.67-5.26-6-2.47-7.09-2.24-7.89-3.68-3.43-6.11,8.73-22.79,16.3-21C575.89,475.35,577.44,477.92,578.07,479Z"/><path class="cls-26" d="M575.19,593.22c-4,20.61-7.21,37.31-16.71,35.48-12.43-2.4-6.28-18.54-2.3-39.15s6.49-42.1,11.73-41.09S579.17,572.62,575.19,593.22Z"/><path class="cls-26" d="M527.15,593.22c4,20.61,7.21,37.31,16.71,35.48,12.43-2.4,6.27-18.54,2.29-39.15s-6.48-42.1-11.73-41.09S523.17,572.62,527.15,593.22Z"/><path class="cls-26" d="M574.73,483.13c1.32,2.17.7,3.77.66,8.9,0,5.34.61,6.63-.33,7.25-1.16.77-2.66-.87-8.57-3.29-3.77-1.56-4.44-1.41-4.94-2.31-2.15-3.83,5.47-14.29,10.22-13.19A5.31,5.31,0,0,1,574.73,483.13Z"/><ellipse class="cls-27" cx="524.49" cy="597.98" rx="14.29" ry="26.94" transform="translate(-159.19 191.47) rotate(-18.01)"/><ellipse class="cls-27" cx="576.55" cy="598.51" rx="26.94" ry="14.29" transform="translate(-170.89 961.75) rotate(-71.99)"/><ellipse class="cls-27" cx="530.44" cy="622.79" rx="8.41" ry="6.05"/><ellipse class="cls-26" cx="541.48" cy="622.79" rx="8.41" ry="6.05"/><ellipse class="cls-27" cx="570.41" cy="622.79" rx="8.41" ry="6.05"/><ellipse class="cls-26" cx="560.94" cy="622.79" rx="8.41" ry="6.05"/><ellipse cx="536.68" cy="513.02" rx="3.02" ry="3.14"/><ellipse cx="559.48" cy="513.02" rx="3.02" ry="3.14"/><ellipse class="cls-17" cx="538.19" cy="512.15" rx="0.84" ry="0.87"/><ellipse class="cls-17" cx="560.99" cy="512.15" rx="0.84" ry="0.87"/><path class="cls-26" d="M548.32,528.66a6.33,6.33,0,0,1-6.57,6.05c-3.63,0-5.57-2.87-6.58-6.05-1.57-5,4.74-5.52,6.58-6C545.24,521.61,548.32,525.32,548.32,528.66Z"/><path class="cls-26" d="M559.89,528.66c-1.4,3-2.94,6.05-6.57,6.05a6.34,6.34,0,0,1-6.58-6.05c0-3.34,3.07-7,6.58-6C557.26,523.66,561.47,525.24,559.89,528.66Z"/><path class="cls-28" d="M543.88,524c-.17-.17-.07-.53,0-.75a3.2,3.2,0,0,1,1-1.51,4.19,4.19,0,0,1,2.26-.75,4.91,4.91,0,0,1,1.95.15,3.55,3.55,0,0,1,1.8,1,2.36,2.36,0,0,1,.6,1.51c0,.28-.07.39-.15.45s-.44-.14-.9-.15a1.07,1.07,0,0,0-1,.6.64.64,0,0,0,.15.6c.27.25.72.06.75.15s-.75.74-1.8.9a4.37,4.37,0,0,1-1.8,0c-.78-.16-1.53-.59-1.51-.75s.32-.05.61-.3c0,0,.35-.32.3-.6s-.45-.6-1.21-.6C544.36,524,544.06,524.13,543.88,524Z"/></g></g></svg>